<?xml version="1.0" standalone="no"?>
<!DOCTYPE svg PUBLIC "-//W3C//DTD SVG 20010904//EN"
 "http://www.w3.org/TR/2001/REC-SVG-20010904/DTD/svg10.dtd">
<svg version="1.0" xmlns="http://www.w3.org/2000/svg"
 width="2456.000000pt" height="607.000000pt" viewBox="0 0 2456.000000 607.000000"
 preserveAspectRatio="xMidYMid meet">

<g transform="translate(0.000000,607.000000) scale(0.100000,-0.100000)"
fill="#000000" stroke="none">
<path d="M18895 6054 c-24 -9 -82 -16 -146 -17 -80 -2 -113 -7 -132 -20 -16
-11 -46 -17 -79 -17 -39 0 -65 -7 -98 -26 -25 -15 -87 -44 -138 -65 -109 -44
-213 -107 -321 -193 -42 -33 -85 -62 -95 -63 -27 -5 -56 -32 -56 -55 0 -10 -6
-18 -14 -18 -21 0 -66 -40 -66 -58 0 -9 -27 -48 -60 -85 -33 -38 -67 -81 -75
-97 -8 -16 -24 -34 -35 -40 -11 -6 -20 -21 -20 -33 0 -25 -24 -65 -52 -85 -11
-8 -18 -26 -18 -45 0 -18 -9 -43 -20 -57 -11 -14 -20 -34 -20 -44 0 -11 -11
-38 -24 -61 -14 -23 -28 -66 -32 -96 -4 -32 -15 -63 -26 -76 -17 -18 -19 -29
-13 -76 6 -43 3 -63 -10 -89 -14 -28 -16 -62 -14 -218 1 -102 7 -191 12 -197
5 -7 10 -44 11 -82 1 -38 8 -76 14 -84 7 -8 17 -41 22 -73 6 -33 22 -82 35
-111 14 -28 25 -61 25 -73 0 -27 21 -76 54 -124 14 -21 31 -56 38 -77 6 -21
22 -48 34 -60 13 -13 24 -30 24 -40 0 -9 11 -24 24 -33 14 -8 26 -25 28 -37 2
-13 15 -30 30 -38 15 -9 44 -38 66 -66 21 -27 66 -74 98 -104 32 -29 78 -71
101 -92 23 -22 46 -39 52 -39 6 0 32 -15 58 -34 27 -18 74 -48 106 -66 31 -17
57 -36 57 -41 0 -5 11 -9 25 -9 32 0 108 -30 118 -47 4 -7 21 -13 37 -13 17 0
39 -9 51 -21 11 -11 28 -19 37 -18 50 5 92 -2 92 -15 0 -10 18 -14 75 -15 53
-1 84 -6 102 -18 65 -43 431 -28 539 23 29 13 78 27 110 30 33 4 69 15 82 25
13 10 29 16 37 13 7 -3 23 4 34 15 20 20 31 24 106 36 26 5 49 18 70 39 16 18
63 51 102 74 181 106 345 273 512 520 23 34 46 62 51 62 6 0 10 11 10 24 0 13
11 40 25 60 14 20 25 43 25 51 0 23 71 208 87 227 8 9 10 18 5 22 -12 7 -1 58
21 101 37 71 30 583 -7 611 -11 7 -17 28 -18 60 -1 27 -7 56 -15 65 -7 8 -18
42 -24 75 -7 32 -17 66 -24 74 -14 17 -28 55 -30 83 -1 11 -6 22 -11 25 -12 8
-54 80 -54 91 0 5 -18 36 -40 69 -22 33 -40 67 -40 76 0 9 -6 16 -13 16 -7 0
-41 39 -77 86 -73 97 -162 179 -327 302 -61 45 -114 89 -117 97 -3 8 -16 15
-30 15 -14 0 -32 8 -42 17 -9 10 -28 16 -41 15 -14 -2 -25 3 -29 12 -3 9 -12
16 -19 16 -23 0 -175 61 -175 71 0 5 -26 9 -57 9 -39 0 -62 5 -75 17 -14 13
-41 17 -121 19 -62 1 -119 9 -146 18 -54 20 -94 20 -146 0z m226 -350 c13 -12
40 -17 93 -18 57 -1 79 -5 94 -19 12 -11 25 -17 29 -14 5 3 22 -1 38 -8 17 -8
64 -27 105 -44 41 -17 102 -49 135 -71 33 -22 67 -40 77 -40 9 0 41 -27 71
-60 29 -33 61 -60 69 -60 19 0 65 -48 86 -91 9 -19 31 -43 49 -54 19 -12 38
-37 48 -64 10 -23 30 -55 46 -69 16 -14 29 -34 29 -44 0 -11 14 -37 32 -59 24
-30 31 -48 30 -74 -2 -24 5 -41 23 -61 20 -21 24 -34 19 -58 -4 -23 0 -39 14
-56 30 -39 57 -212 56 -364 -1 -71 -6 -131 -11 -135 -6 -3 -13 -37 -16 -75 -5
-51 -12 -75 -28 -92 -16 -17 -20 -31 -16 -53 5 -23 1 -37 -18 -60 -16 -18 -25
-41 -25 -63 0 -24 -11 -46 -40 -82 -22 -26 -40 -59 -40 -71 0 -15 -11 -32 -30
-45 -16 -12 -30 -30 -30 -41 0 -10 -9 -24 -20 -31 -11 -7 -20 -20 -20 -28 0
-21 -161 -180 -182 -180 -9 0 -22 -9 -28 -20 -6 -11 -19 -20 -30 -20 -10 0
-28 -13 -40 -30 -12 -16 -30 -30 -40 -30 -11 0 -24 -8 -29 -18 -5 -9 -42 -32
-83 -51 -40 -18 -85 -40 -101 -48 -15 -8 -36 -12 -46 -8 -13 4 -23 0 -29 -11
-7 -13 -27 -19 -73 -22 -35 -3 -69 -10 -76 -17 -17 -18 -198 -29 -347 -22
-118 6 -268 35 -290 57 -5 5 -24 10 -42 10 -17 0 -44 10 -59 22 -15 12 -35 22
-44 23 -32 2 -82 28 -111 57 -16 15 -37 28 -47 28 -10 0 -26 9 -36 20 -9 11
-23 20 -30 20 -7 0 -35 21 -63 48 -27 26 -61 55 -76 65 -16 10 -34 32 -42 51
-8 18 -26 42 -41 52 -38 26 -88 81 -91 100 -1 8 -13 26 -27 40 -13 13 -34 50
-45 82 -12 31 -33 73 -47 92 -16 22 -25 47 -25 71 0 22 -8 47 -22 64 -17 21
-22 40 -20 74 1 33 -3 51 -19 67 -19 20 -20 34 -21 253 0 212 1 233 18 252 13
14 19 38 20 75 1 42 7 61 24 79 13 14 20 32 18 47 -2 15 10 42 34 78 21 30 45
77 53 105 14 47 25 62 82 114 12 11 25 33 29 48 8 34 178 209 211 218 12 3 23
12 23 20 0 8 9 15 20 15 11 0 25 9 32 20 7 11 21 20 30 20 10 0 25 11 33 24
11 16 30 27 57 31 22 4 47 16 56 26 9 10 26 19 37 19 11 0 45 12 75 26 63 29
159 54 211 54 19 0 39 4 45 9 15 15 50 18 193 20 111 1 138 -2 152 -15z"/>
<path d="M18914 5385 c-15 -10 -51 -15 -115 -16 -72 -1 -99 -6 -114 -19 -11
-9 -51 -25 -89 -35 -42 -11 -81 -29 -101 -46 -18 -16 -39 -29 -47 -29 -7 0
-21 -9 -31 -20 -9 -11 -23 -20 -31 -20 -7 0 -26 -16 -40 -35 -15 -19 -43 -42
-62 -50 -19 -8 -34 -21 -34 -30 0 -10 -27 -51 -60 -92 -34 -41 -74 -101 -90
-133 -16 -32 -36 -60 -45 -63 -8 -4 -15 -14 -15 -24 0 -10 -9 -43 -21 -73 -17
-44 -23 -91 -29 -235 -8 -164 -7 -183 10 -225 10 -25 24 -79 31 -120 9 -55 19
-81 36 -97 14 -14 23 -34 23 -52 0 -22 8 -36 30 -53 17 -12 30 -28 30 -36 0
-9 25 -43 55 -76 31 -34 65 -73 78 -87 54 -63 279 -209 323 -209 6 0 17 -7 24
-15 8 -10 30 -15 60 -15 27 0 86 -9 132 -20 109 -26 288 -24 330 4 18 12 42
17 72 15 29 -2 51 2 63 12 23 20 69 39 92 39 10 0 26 9 36 20 10 11 26 20 36
20 10 0 23 8 28 18 5 10 22 24 38 32 15 8 37 25 48 37 11 13 40 33 65 46 34
18 51 36 75 81 16 32 51 81 77 109 31 33 50 65 54 87 3 19 21 63 40 98 26 47
34 75 34 113 0 27 9 75 20 106 23 67 26 140 6 169 -8 11 -17 58 -21 104 -9
106 -19 150 -45 183 -11 14 -20 40 -20 59 0 27 -9 43 -45 78 -29 28 -44 52
-43 65 2 14 -36 58 -140 158 -156 150 -226 195 -345 218 -32 7 -61 18 -64 25
-4 10 -29 14 -98 14 -70 0 -96 4 -105 15 -16 19 -69 19 -96 0z m211 -353 c22
-12 58 -26 81 -32 68 -17 183 -101 235 -172 51 -69 104 -166 115 -213 4 -16
15 -41 26 -54 15 -20 18 -43 18 -156 0 -125 -1 -134 -25 -169 -14 -20 -25 -50
-25 -66 0 -18 -11 -42 -30 -63 -16 -19 -30 -42 -30 -50 0 -9 -20 -32 -45 -53
-25 -20 -45 -42 -45 -49 0 -7 -10 -15 -22 -19 -13 -3 -50 -29 -82 -57 -42 -35
-65 -49 -79 -45 -11 3 -36 -2 -56 -11 -26 -11 -84 -18 -205 -23 l-169 -6 -24
24 c-16 16 -31 22 -44 19 -35 -9 -131 39 -157 78 -12 19 -41 49 -64 65 -27 20
-46 44 -54 68 -7 20 -25 46 -39 57 -14 12 -25 26 -25 33 0 7 -11 45 -26 85
-20 59 -25 91 -26 177 0 138 16 216 59 282 19 29 37 65 40 81 3 15 18 38 34
52 16 13 29 30 29 38 0 8 14 20 30 27 17 7 35 21 41 31 5 11 16 19 24 19 8 0
22 9 33 20 10 11 47 29 84 40 36 11 76 29 90 39 31 25 61 29 188 27 87 -1 112
-5 145 -24z"/>
<path d="M5007 5918 c-16 -12 -17 -111 -15 -1503 l3 -1490 495 0 495 0 0 150
c0 149 0 149 -25 162 -18 9 -101 13 -315 13 -213 0 -294 3 -303 12 -17 17 -17
2289 0 2306 17 17 282 17 296 -1 7 -9 12 -318 14 -989 2 -785 6 -980 16 -990
9 -9 49 -13 140 -13 105 0 133 3 155 18 l27 17 2 1121 c2 616 0 1130 -5 1141
-4 12 -17 29 -29 40 -20 17 -48 18 -478 18 -349 0 -460 -3 -473 -12z"/>
<path d="M53 5900 c-12 -5 -26 -18 -32 -28 -7 -13 -11 -496 -11 -1483 l-1
-1464 498 0 498 0 9 65 c5 36 5 128 1 205 -7 127 -9 140 -31 162 -13 13 -24
26 -24 29 0 3 -16 24 -35 47 -24 28 -35 50 -35 73 0 18 -6 34 -14 37 -20 8
-126 188 -126 214 0 11 -7 23 -15 27 -8 3 -20 17 -25 31 -6 16 -16 25 -26 23
-13 -3 -15 -37 -14 -282 0 -196 -3 -282 -11 -292 -9 -11 -44 -14 -148 -14 -75
0 -143 5 -151 10 -13 8 -15 149 -18 1149 -2 1028 -1 1141 14 1155 13 14 50 16
259 16 216 0 245 -2 264 -17 12 -10 23 -29 26 -42 3 -14 11 -29 19 -33 7 -4
17 -23 20 -43 4 -19 24 -55 46 -80 22 -25 44 -64 50 -86 6 -22 18 -43 26 -46
7 -3 14 -13 14 -24 0 -10 8 -26 18 -36 26 -26 68 -101 92 -167 13 -33 32 -63
46 -73 16 -10 30 -35 40 -70 9 -32 30 -71 50 -93 19 -21 34 -44 34 -52 0 -9 7
-21 14 -28 8 -6 22 -33 30 -58 9 -26 34 -71 56 -100 22 -29 40 -60 40 -69 0
-22 38 -81 60 -93 10 -5 26 -31 36 -57 9 -27 23 -53 31 -59 7 -6 13 -18 13
-27 0 -9 8 -24 19 -34 10 -10 21 -31 25 -48 4 -16 18 -43 30 -60 13 -16 32
-51 44 -77 11 -25 29 -51 39 -56 10 -6 24 -30 30 -55 7 -26 31 -66 58 -98 26
-30 45 -63 45 -76 0 -29 27 -83 41 -83 5 0 14 -11 19 -25 11 -29 40 -34 40 -7
0 11 15 35 34 54 19 19 44 55 56 79 12 24 33 58 46 76 13 17 24 41 24 51 0 11
16 39 35 63 47 56 79 112 100 178 11 32 34 72 56 96 22 23 42 56 45 74 4 17
15 38 25 45 11 7 24 28 31 47 6 19 26 50 43 70 18 20 35 52 39 73 4 20 16 42
26 49 11 6 20 21 20 32 0 24 18 51 60 94 17 16 30 39 30 51 0 28 66 146 91
164 12 8 17 20 13 29 -6 17 46 101 82 129 25 21 54 77 54 108 0 22 54 109 76
123 21 12 54 73 54 99 0 14 9 33 20 43 11 10 20 22 20 28 0 5 14 22 30 37 17
15 30 37 30 48 0 15 9 21 46 26 60 8 397 8 447 0 l37 -7 0 -1155 0 -1155 -156
5 c-119 4 -158 8 -165 19 -5 8 -9 425 -9 965 0 523 -3 954 -6 957 -11 11 -43
-13 -60 -45 -9 -17 -22 -52 -30 -78 -8 -29 -24 -54 -38 -64 -13 -8 -27 -30
-31 -48 -4 -18 -18 -40 -30 -50 -13 -10 -26 -33 -29 -53 -4 -19 -18 -45 -31
-58 -13 -12 -26 -32 -28 -44 -2 -13 -15 -35 -29 -50 -31 -34 -48 -65 -48 -90
0 -11 -13 -32 -30 -48 -16 -16 -30 -37 -30 -48 0 -10 -17 -38 -38 -62 -21 -24
-42 -62 -49 -88 -8 -29 -26 -60 -51 -84 -26 -26 -41 -51 -46 -78 -4 -22 -16
-45 -26 -52 -9 -7 -20 -26 -23 -42 -4 -16 -22 -45 -41 -65 -22 -21 -40 -52
-47 -80 -7 -28 -20 -51 -35 -61 -15 -9 -24 -25 -24 -40 0 -14 -14 -38 -32 -57
-18 -18 -44 -58 -57 -88 -36 -84 -52 -113 -83 -143 -15 -16 -28 -35 -28 -42 0
-7 -11 -27 -25 -44 -14 -16 -33 -53 -41 -81 -19 -63 -72 -124 -127 -145 -61
-23 -287 -17 -337 10 -40 21 -57 40 -66 75 -4 14 -18 38 -31 53 -12 16 -23 37
-23 48 0 10 -15 36 -34 56 -18 21 -38 54 -45 74 -6 20 -21 45 -31 54 -11 10
-20 29 -20 42 0 13 -17 42 -39 66 -21 23 -41 55 -45 71 -4 17 -20 45 -37 63
-16 18 -32 45 -35 58 -3 14 -14 30 -24 35 -10 5 -20 26 -24 49 -4 27 -17 51
-41 74 -19 19 -35 37 -35 41 0 4 -13 26 -29 49 -16 23 -32 59 -36 80 -3 22
-20 54 -39 75 -43 49 -76 105 -76 129 0 11 -10 28 -21 39 -12 10 -28 33 -36
49 -7 17 -32 53 -54 80 -22 28 -38 57 -35 67 2 9 -4 24 -14 33 -10 9 -20 29
-23 45 -4 16 -18 42 -31 57 -63 70 -77 93 -71 112 3 12 0 21 -9 24 -9 4 -22
21 -29 40 -8 18 -27 46 -41 61 -19 18 -25 33 -21 46 4 13 0 22 -14 29 -11 6
-21 21 -23 33 -2 13 -9 23 -16 23 -9 0 -13 -65 -15 -290 l-2 -291 36 -74 c20
-41 42 -92 49 -114 7 -21 27 -55 45 -75 38 -42 75 -108 75 -133 0 -9 9 -23 20
-31 11 -8 40 -60 65 -116 55 -126 94 -195 158 -280 27 -36 55 -86 63 -111 7
-25 25 -57 39 -70 38 -35 75 -104 75 -139 0 -21 8 -35 29 -50 19 -14 31 -33
36 -57 3 -20 17 -47 31 -61 13 -13 24 -26 24 -29 0 -3 11 -20 25 -38 14 -18
25 -41 25 -50 0 -23 17 -54 50 -93 16 -17 46 -68 69 -113 l41 -82 332 2 c201
0 349 5 373 11 26 7 55 27 83 58 24 25 59 62 78 82 19 19 34 45 34 57 0 12 9
26 21 33 14 7 19 17 15 31 -5 23 45 105 70 115 8 3 14 14 14 25 0 11 13 36 30
54 16 19 27 40 24 48 -6 15 51 111 80 135 22 18 56 84 56 108 0 10 18 37 39
61 22 24 43 57 46 74 15 66 62 153 89 166 15 6 29 12 31 12 3 0 5 -241 5 -535
l0 -535 485 0 c469 0 485 1 495 19 7 13 10 492 10 1480 0 1320 -2 1461 -16
1475 -14 15 -73 16 -527 16 -282 0 -517 -4 -523 -8 -6 -4 -14 -18 -17 -32 -4
-14 -18 -38 -32 -54 -14 -16 -25 -36 -25 -45 0 -9 -9 -22 -20 -29 -11 -7 -20
-23 -20 -35 0 -13 -11 -33 -25 -45 -14 -12 -25 -31 -25 -43 0 -12 -16 -39 -35
-60 -19 -22 -35 -49 -35 -62 0 -12 -9 -28 -20 -35 -11 -7 -20 -20 -20 -31 0
-10 -9 -28 -20 -41 -11 -13 -20 -29 -20 -37 0 -7 -9 -22 -20 -33 -11 -11 -20
-28 -20 -38 0 -11 -8 -27 -19 -36 -10 -9 -21 -29 -24 -44 -3 -15 -25 -49 -48
-77 -38 -45 -109 -178 -109 -204 0 -6 -9 -15 -20 -21 -11 -6 -20 -19 -20 -29
0 -10 -7 -24 -15 -31 -8 -7 -20 -30 -25 -51 -6 -23 -17 -39 -25 -39 -8 0 -16
-4 -16 -10 -6 -48 -70 -171 -110 -211 -11 -11 -20 -31 -21 -45 -2 -15 -13 -36
-25 -48 -13 -11 -23 -25 -23 -30 0 -4 -11 -21 -25 -37 -13 -16 -27 -45 -31
-64 -6 -31 -10 -35 -38 -35 -30 0 -35 5 -62 60 -16 33 -70 126 -120 208 -50
82 -94 164 -98 183 -3 19 -27 61 -54 94 -59 72 -82 115 -82 150 0 15 -11 36
-25 49 -28 26 -95 141 -95 162 0 22 -29 74 -66 120 -19 23 -34 44 -34 49 0 4
-12 21 -26 38 -15 18 -23 38 -21 49 4 12 -2 23 -15 31 -21 13 -78 116 -78 142
0 9 -12 28 -27 43 -14 14 -46 67 -69 117 -23 49 -56 102 -72 118 l-30 27 -489
-1 c-268 0 -498 -4 -510 -9z"/>
<path d="M7667 5904 c-3 -3 -34 -6 -69 -6 -53 0 -78 -6 -158 -42 -137 -62
-215 -115 -248 -167 -16 -24 -51 -70 -79 -101 -61 -70 -137 -197 -154 -258
-14 -50 -21 -428 -8 -445 4 -6 17 -46 29 -89 33 -125 58 -162 219 -324 87 -88
113 -106 241 -168 64 -31 90 -37 180 -45 58 -4 497 -8 977 -8 866 -1 872 -1
907 -22 20 -11 41 -19 48 -16 15 5 68 -20 68 -32 0 -5 12 -11 28 -14 33 -7
142 -112 142 -137 0 -10 12 -32 26 -50 17 -19 28 -45 29 -70 2 -22 13 -56 25
-76 19 -29 22 -46 18 -101 -2 -39 -9 -68 -16 -71 -7 -2 -12 -21 -12 -41 0 -27
-9 -49 -30 -76 -16 -21 -30 -44 -30 -52 0 -9 -12 -24 -26 -35 -14 -12 -30 -31
-35 -44 -5 -14 -20 -29 -34 -34 -14 -5 -25 -14 -25 -20 0 -5 -35 -27 -78 -49
l-78 -39 -1000 -6 c-1141 -7 -1064 -13 -1151 76 -28 29 -55 66 -59 82 -4 16
-18 45 -31 65 -13 19 -23 44 -21 56 3 20 4 20 1071 25 999 5 1069 6 1081 22 7
10 31 21 52 26 52 10 69 44 69 138 0 87 -15 117 -75 152 l-45 27 -1221 3
c-1083 2 -1223 1 -1234 -13 -18 -22 -24 -251 -11 -422 l10 -142 66 -108 c81
-131 90 -142 185 -204 41 -27 86 -58 98 -69 13 -11 29 -21 35 -21 51 -5 69
-10 91 -24 22 -15 117 -16 1042 -16 737 1 1021 4 1031 12 7 7 46 15 86 19 78
7 101 16 160 63 21 16 48 31 60 32 12 1 25 3 29 4 5 0 21 20 38 42 19 26 48
50 79 65 51 23 82 61 111 134 8 19 22 41 32 48 27 20 44 58 63 147 10 44 22
83 28 87 6 3 11 67 12 155 0 82 4 154 8 160 4 7 -2 18 -13 26 -14 10 -22 33
-30 88 -11 78 -43 157 -67 166 -7 3 -21 20 -30 37 -9 17 -30 47 -47 68 -17 20
-40 51 -51 70 -11 18 -35 40 -53 49 -18 9 -41 28 -53 43 -11 14 -29 26 -40 26
-26 0 -71 24 -105 55 -30 28 -81 45 -137 45 -21 0 -51 7 -67 15 -25 13 -156
15 -958 17 -870 3 -931 4 -949 21 -11 9 -35 17 -55 17 -28 0 -42 8 -69 36 -19
20 -60 63 -92 94 -56 55 -60 62 -88 161 -33 119 -37 208 -13 289 9 29 18 63
20 73 2 11 15 32 29 47 14 14 25 33 25 41 0 21 82 99 103 99 10 0 20 7 23 15
9 23 87 65 121 65 17 0 36 7 43 15 11 13 133 15 984 15 909 0 973 -1 996 -17
13 -10 51 -29 84 -43 47 -19 64 -33 76 -57 8 -18 24 -39 35 -47 15 -11 20 -26
20 -65 0 -94 105 -86 -1062 -89 -885 -2 -1029 -4 -1043 -17 -9 -8 -27 -16 -40
-17 -37 -4 -110 -112 -110 -163 0 -74 68 -133 167 -146 37 -4 596 -8 1240 -9
l1173 0 15 23 c22 34 14 476 -9 509 -9 12 -16 34 -17 48 -1 54 -36 110 -131
209 -55 58 -104 101 -115 101 -10 0 -42 18 -71 40 -58 43 -67 45 -221 60 -110
11 -1953 14 -1964 4z"/>
<path d="M11897 5904 c-3 -3 -37 -6 -76 -6 -64 0 -73 -2 -91 -25 -17 -21 -26
-25 -54 -20 -27 4 -38 1 -53 -15 -10 -11 -49 -42 -88 -68 -177 -120 -293 -273
-336 -445 -7 -27 -20 -56 -30 -66 -32 -32 -38 -259 -8 -296 6 -6 17 -43 25
-80 8 -37 17 -75 19 -83 9 -38 81 -169 120 -219 81 -104 218 -222 306 -264 30
-13 88 -33 129 -43 69 -17 145 -19 1016 -24 879 -5 943 -6 961 -22 11 -10 29
-18 40 -18 47 0 205 -144 258 -234 81 -138 71 -329 -25 -482 -28 -43 -53 -86
-56 -96 -3 -10 -12 -18 -19 -18 -8 0 -22 -9 -32 -19 -24 -26 -104 -56 -205
-78 -77 -17 -156 -18 -1035 -18 l-952 0 -28 26 c-15 14 -49 39 -75 55 -29 17
-48 36 -48 47 0 10 -12 30 -26 44 -32 32 -36 83 -9 113 18 20 23 20 1056 20
l1038 0 60 50 c75 63 85 80 78 142 -10 78 -38 132 -83 154 -38 18 -77 19
-1270 22 -1140 2 -1232 1 -1245 -14 -11 -14 -14 -63 -14 -228 0 -181 3 -216
18 -243 9 -18 17 -50 17 -73 0 -28 7 -47 23 -62 26 -27 95 -132 108 -165 5
-13 14 -23 21 -23 7 0 40 -25 73 -55 32 -30 65 -55 71 -55 7 0 25 -11 41 -24
15 -13 48 -34 73 -47 l45 -24 1045 -5 c943 -5 1047 -3 1070 11 14 9 55 19 92
22 68 6 120 26 135 50 11 18 98 67 118 67 8 0 19 10 24 23 5 12 50 59 100 105
64 59 91 90 91 106 0 13 7 29 16 36 37 31 67 103 80 192 9 57 19 95 29 102 23
17 26 167 4 192 -9 11 -21 50 -28 89 -7 38 -25 101 -40 140 -16 38 -36 92 -46
118 -22 61 -148 197 -211 227 -24 12 -57 39 -74 61 -21 25 -39 38 -53 38 -24
-2 -118 38 -128 53 -3 5 -44 11 -90 14 -46 3 -91 8 -99 12 -8 4 -409 10 -890
13 -481 4 -888 7 -903 8 -16 0 -42 12 -59 26 -16 14 -35 26 -41 26 -54 5 -72
10 -100 28 -38 23 -71 66 -80 103 -4 14 -18 40 -32 56 -14 17 -25 38 -25 48 0
9 -7 26 -17 36 -12 13 -17 44 -21 118 -5 115 10 207 42 250 12 15 35 47 51 70
52 72 87 110 101 110 7 0 17 6 21 13 12 21 97 67 124 67 13 0 33 7 43 15 17
13 153 15 993 15 l973 0 16 -25 c9 -14 25 -25 36 -25 31 0 93 -36 126 -75 37
-41 56 -83 65 -141 l7 -41 -46 -7 c-26 -3 -500 -6 -1055 -6 -906 0 -1009 -2
-1017 -16 -5 -8 -28 -18 -51 -21 -37 -5 -44 -10 -60 -47 -62 -144 -64 -123 15
-209 l51 -55 1234 -2 c993 -1 1237 2 1251 12 14 11 17 41 20 211 2 139 0 200
-8 205 -6 4 -15 27 -19 51 -11 65 -42 150 -70 193 -14 21 -25 42 -25 47 0 6
-40 51 -89 100 -73 74 -96 91 -119 91 -20 0 -35 8 -46 25 -21 31 -63 42 -213
55 -128 11 -1945 15 -1956 4z"/>
<path d="M15410 5900 c-13 -8 -15 -186 -18 -1481 -2 -1084 1 -1475 9 -1485 9
-12 97 -14 485 -14 458 0 474 1 484 19 5 11 10 71 10 134 0 164 28 151 -348
157 l-306 5 -13 25 c-19 37 -19 2278 0 2303 11 15 32 18 171 18 88 0 163 -4
168 -9 4 -4 9 -445 10 -980 3 -852 5 -974 18 -983 23 -15 263 -7 283 10 16 12
17 104 17 1130 0 994 -2 1119 -16 1139 l-15 22 -462 0 c-274 0 -468 -4 -477
-10z"/>
<path d="M21291 5896 c-8 -10 -10 -407 -9 -1492 l3 -1479 485 0 485 0 3 475
c1 261 0 485 -3 498 -3 13 -27 44 -53 70 -26 26 -55 62 -64 79 -9 18 -41 48
-71 67 -40 26 -59 46 -71 75 -11 29 -22 41 -36 41 -20 0 -20 -6 -20 -479 0
-518 1 -512 -52 -495 -13 4 -81 8 -153 8 l-130 1 -3 1144 c-1 874 1 1147 10
1158 10 12 51 14 237 11 214 -3 229 -4 274 -27 51 -25 177 -162 177 -192 0 -9
21 -33 46 -54 25 -21 68 -65 95 -99 27 -33 61 -72 74 -86 14 -14 25 -31 25
-39 0 -7 28 -38 62 -69 84 -78 188 -201 188 -223 0 -10 23 -36 50 -58 57 -45
140 -138 140 -157 0 -7 6 -17 14 -21 30 -18 216 -225 216 -241 0 -10 20 -35
46 -56 57 -48 204 -216 204 -233 0 -8 42 -55 94 -106 59 -58 102 -110 116
-140 12 -26 31 -52 42 -58 11 -6 46 -38 78 -70 32 -32 63 -59 68 -59 6 0 13
14 17 30 4 17 4 454 1 972 -5 834 -4 944 9 965 15 22 20 23 153 23 75 0 144
-5 152 -10 13 -8 15 -148 18 -1140 1 -774 -1 -1137 -8 -1150 -10 -19 -23 -20
-263 -20 l-252 0 -66 71 c-37 39 -69 83 -72 98 -4 17 -19 36 -36 47 -37 24
-201 210 -201 229 0 8 -11 22 -25 31 -36 24 -205 220 -205 238 0 9 -8 20 -19
24 -23 9 -121 116 -121 132 0 7 -17 29 -39 49 -82 77 -192 204 -205 236 -8 18
-25 40 -38 49 -32 21 -182 195 -185 215 -1 9 -10 21 -19 26 -26 15 -157 152
-174 183 -9 15 -30 43 -48 62 -17 19 -32 39 -32 45 0 5 -31 38 -69 72 -38 34
-72 74 -75 88 -8 31 -80 105 -102 105 -15 0 -16 -24 -9 -260 l7 -261 64 -61
c35 -34 64 -68 64 -76 0 -8 22 -36 49 -61 73 -68 191 -203 191 -219 0 -8 27
-39 60 -70 72 -66 165 -178 179 -214 6 -15 22 -35 38 -45 34 -23 105 -98 118
-126 6 -12 30 -42 53 -66 24 -24 47 -54 52 -67 5 -13 16 -24 24 -24 19 0 116
-109 116 -130 0 -9 13 -25 28 -37 36 -27 202 -217 202 -232 0 -6 41 -53 92
-104 50 -50 115 -123 143 -162 61 -82 79 -99 120 -115 27 -11 298 -14 907 -10
50 0 81 5 90 13 11 11 13 279 13 1486 0 1297 -2 1473 -15 1481 -9 6 -201 9
-502 8 -384 -2 -490 -6 -500 -16 -10 -10 -14 -154 -18 -695 -4 -607 -7 -682
-21 -685 -16 -3 -189 187 -189 208 0 6 -36 45 -80 86 -43 41 -82 85 -85 97 -4
12 -19 33 -35 47 -56 50 -201 222 -214 255 -8 18 -23 36 -33 39 -22 7 -190
192 -213 234 -8 15 -50 61 -93 101 -42 41 -80 84 -83 97 -3 12 -19 34 -35 48
-16 14 -29 33 -29 41 0 17 -124 120 -164 134 -18 7 -189 11 -485 11 -374 0
-461 -3 -470 -14z"/>
<path d="M9526 1342 c-4 -4 -135 -5 -291 -4 -196 3 -290 0 -304 -8 -21 -11
-21 -11 -21 -648 0 -384 4 -643 10 -652 7 -12 33 -15 129 -15 164 0 155 -12
159 215 l4 180 36 10 c21 5 69 10 108 10 l70 0 21 -37 c11 -21 24 -49 28 -63
4 -14 16 -36 26 -49 11 -13 19 -30 19 -38 0 -8 9 -26 20 -40 11 -14 20 -36 20
-48 0 -13 16 -42 35 -66 20 -23 40 -50 46 -61 9 -17 21 -18 147 -16 l137 3 3
27 c2 18 -3 30 -16 37 -10 5 -25 29 -32 53 -7 24 -19 50 -27 59 -7 8 -19 37
-27 64 -9 29 -30 64 -53 87 -33 34 -37 44 -38 90 l0 51 71 61 c114 98 115 99
116 337 0 113 -4 204 -9 208 -5 3 -22 29 -38 56 -33 57 -105 132 -142 146 -13
5 -37 9 -53 9 -16 0 -44 8 -62 19 -40 23 -82 33 -92 23z m29 -292 c15 -6 45
-28 67 -51 34 -34 39 -44 33 -67 -4 -15 -11 -45 -15 -68 -10 -62 -40 -106 -90
-132 -42 -21 -56 -22 -195 -20 l-150 3 -9 128 c-4 71 -5 148 -1 173 l6 44 164
0 c90 0 176 -5 190 -10z"/>
<path d="M12888 1335 c-83 -21 -170 -60 -206 -92 -18 -15 -53 -40 -79 -54 -26
-14 -51 -34 -57 -45 -6 -10 -32 -52 -58 -93 -27 -42 -48 -80 -48 -87 0 -7 -7
-14 -15 -18 -9 -3 -15 -18 -15 -40 0 -21 -6 -36 -16 -40 -13 -5 -15 -32 -13
-193 1 -167 4 -191 20 -212 11 -13 19 -39 19 -58 0 -20 6 -36 14 -39 17 -6 86
-108 86 -126 0 -22 174 -151 279 -208 46 -24 51 -25 245 -23 127 1 202 5 209
12 6 6 23 11 38 11 15 0 31 5 34 10 4 6 32 26 63 46 125 80 223 187 272 297
11 26 24 49 29 51 5 3 12 27 15 53 4 27 16 78 28 114 l21 66 -21 69 c-12 38
-24 90 -27 117 -4 27 -14 55 -25 65 -10 9 -28 41 -39 71 -61 154 -188 258
-401 326 -106 34 -263 43 -352 20z m274 -302 c13 -12 43 -29 66 -37 62 -22 95
-49 131 -104 21 -33 31 -61 31 -88 0 -23 8 -49 20 -64 27 -34 25 -89 -5 -146
-14 -26 -25 -58 -25 -71 0 -65 -86 -163 -161 -183 -22 -6 -39 -15 -39 -19 0
-17 -63 -31 -136 -31 -61 0 -78 4 -94 20 -12 12 -33 20 -55 20 -35 0 -52 12
-88 64 -10 14 -23 26 -30 26 -7 0 -25 21 -42 48 -30 46 -30 48 -30 187 0 124
3 147 24 200 34 85 103 150 166 158 30 3 55 13 69 27 19 19 30 21 98 18 62 -2
81 -7 100 -25z"/>
<path d="M14610 1336 c-30 -7 -75 -23 -100 -34 -25 -12 -60 -22 -79 -22 -26 0
-41 -9 -70 -40 -20 -22 -42 -40 -49 -40 -15 0 -112 -100 -112 -116 0 -6 -13
-23 -30 -37 -16 -15 -30 -35 -30 -44 0 -9 -8 -26 -18 -37 -10 -12 -26 -52 -35
-91 -40 -175 -29 -389 24 -478 16 -27 29 -54 29 -62 0 -7 11 -20 25 -29 14 -9
33 -33 44 -54 22 -43 63 -83 108 -106 18 -9 37 -25 42 -35 6 -10 23 -21 39
-24 16 -3 47 -21 70 -40 40 -34 41 -34 174 -41 151 -8 253 3 368 40 69 21 79
28 118 79 24 31 57 65 73 77 16 12 29 27 29 34 0 7 8 19 19 26 10 7 22 28 26
46 4 18 18 45 31 59 19 20 23 33 19 57 -4 19 2 57 14 96 35 109 22 233 -26
251 -13 5 -143 9 -288 9 -226 0 -266 -2 -279 -16 -12 -12 -16 -38 -16 -114 0
-88 2 -100 19 -110 11 -5 74 -10 140 -10 65 0 126 -3 135 -6 20 -8 21 -38 1
-54 -8 -7 -15 -24 -15 -37 0 -38 -57 -89 -108 -98 -26 -4 -48 -15 -55 -26 -10
-16 -24 -19 -92 -19 -67 0 -86 4 -120 25 -22 13 -48 25 -58 25 -27 0 -123 77
-136 108 -29 76 -53 199 -47 252 3 30 7 78 9 105 3 62 27 98 109 162 42 34 68
47 85 45 15 -2 32 4 44 17 35 38 150 41 190 5 11 -10 38 -19 60 -20 30 -1 49
-10 72 -32 46 -43 85 -34 165 39 34 31 62 61 62 67 0 6 9 16 20 22 27 14 25
39 -4 50 -13 5 -43 31 -67 59 -26 31 -52 51 -65 51 -11 0 -35 11 -54 25 -22
16 -47 25 -71 25 -20 0 -58 4 -85 9 -95 18 -198 21 -254 7z"/>
<path d="M21645 1340 c-16 -3 -136 -4 -266 -2 -130 3 -252 2 -272 -2 -32 -6
-38 -12 -47 -46 -13 -48 -10 -1236 4 -1262 7 -16 25 -18 147 -18 l139 0 0 194
0 194 40 16 c22 9 57 16 77 16 70 0 163 -63 163 -111 0 -11 9 -28 20 -39 11
-11 20 -32 20 -46 0 -14 12 -38 27 -54 14 -15 27 -40 29 -55 2 -15 12 -34 23
-42 12 -8 21 -23 21 -33 0 -38 37 -50 156 -50 99 0 114 2 139 22 25 19 26 23
11 33 -9 7 -23 34 -31 61 -8 27 -36 85 -62 129 -43 73 -56 90 -75 97 -3 2 -9
18 -11 36 -3 19 -13 42 -22 52 -25 28 -15 63 20 76 44 15 155 127 155 156 0
13 8 34 17 48 21 30 28 166 13 265 -17 114 -43 185 -76 208 -16 11 -40 30 -54
42 -29 26 -61 44 -150 83 -75 34 -113 42 -155 32z m59 -295 c3 -8 12 -15 19
-15 26 0 50 -40 63 -102 11 -51 10 -63 -2 -75 -8 -8 -14 -27 -14 -42 0 -33
-11 -44 -62 -60 -20 -7 -39 -18 -42 -26 -4 -12 -32 -15 -143 -15 -76 0 -145 5
-153 10 -19 12 -29 285 -11 319 11 20 18 21 175 21 136 0 165 -3 170 -15z"/>
<path d="M2480 1320 c-20 -20 -20 -27 -18 -663 l3 -642 335 0 335 0 85 42
c109 55 190 130 190 177 0 18 6 40 13 49 15 21 14 201 -1 220 -5 7 -13 28 -17
47 -14 64 -33 89 -93 118 -78 37 -82 65 -17 129 63 62 75 94 75 203 0 71 -3
92 -15 96 -9 4 -15 19 -15 41 0 28 -9 43 -52 86 -29 29 -57 53 -63 53 -5 1
-19 2 -31 3 -12 0 -35 14 -51 30 l-30 29 -306 1 c-296 2 -307 1 -327 -19z
m567 -275 c29 -20 49 -102 30 -124 -8 -9 -18 -26 -21 -38 -4 -12 -27 -33 -51
-47 -37 -22 -55 -26 -127 -26 -46 0 -89 4 -97 9 -10 7 -13 36 -13 122 1 63 2
115 2 117 0 1 57 2 128 2 96 0 133 -4 149 -15z m26 -487 c28 -21 57 -90 57
-135 0 -24 -4 -43 -10 -43 -5 0 -13 -14 -18 -32 -6 -25 -15 -34 -38 -40 -16
-3 -46 -11 -67 -16 -44 -12 -196 -4 -214 11 -18 13 -18 238 -1 255 17 17 268
17 291 0z"/>
<path d="M3786 1319 l-26 -20 0 -619 0 -618 31 -26 31 -26 387 0 c247 0 399 4
418 11 33 11 30 1 49 155 5 44 3 54 -19 80 l-25 29 -266 3 -265 3 -7 34 c-8
45 -1 201 9 212 5 4 119 10 254 13 l246 5 -2 115 c-1 63 -7 120 -13 127 -8 10
-66 13 -244 13 -287 0 -271 -8 -268 134 1 54 6 102 11 106 4 5 126 10 270 12
236 3 264 5 280 21 14 14 19 40 23 123 l5 105 -29 15 c-24 11 -100 14 -426 14
-387 0 -398 -1 -424 -21z"/>
<path d="M4987 1329 c-27 -16 -49 -68 -50 -119 -1 -58 22 -140 41 -147 8 -3
89 -6 181 -7 l166 -1 7 -125 c4 -69 7 -298 6 -509 -1 -363 0 -385 17 -397 13
-10 52 -14 127 -14 163 0 148 -51 148 500 0 490 2 514 48 539 12 6 76 11 149
11 176 0 173 -3 173 145 0 103 -2 115 -19 125 -27 14 -969 13 -994 -1z"/>
<path d="M6274 1329 c-3 -6 -6 -65 -6 -132 0 -104 2 -123 18 -134 13 -9 58
-13 159 -13 97 0 146 -4 158 -12 15 -12 17 -56 19 -498 l3 -484 34 -23 c31
-21 46 -23 151 -23 102 0 119 2 126 18 5 9 11 244 14 522 l5 505 160 5 c211 7
216 10 216 135 0 84 -4 95 -44 123 l-33 22 -487 0 c-344 0 -488 -3 -493 -11z"/>
<path d="M7680 1333 c-8 -3 -18 -11 -22 -17 -4 -6 -8 -301 -8 -656 l0 -645
418 -3 c459 -4 443 -6 458 55 9 36 -3 194 -16 207 -7 7 -101 12 -270 14 l-259
3 -7 65 c-3 36 -3 94 2 127 l9 62 233 5 c217 5 235 6 248 24 18 25 20 206 2
224 -9 9 -77 12 -244 12 -128 0 -235 4 -238 9 -14 22 -18 153 -6 195 l12 45
254 3 c187 2 256 6 266 16 8 8 12 48 13 123 0 98 -2 112 -19 125 -16 12 -89
14 -415 13 -218 0 -403 -3 -411 -6z"/>
<path d="M11053 1330 c-30 -12 -39 -61 -35 -183 2 -42 6 -50 35 -67 28 -17 50
-20 179 -20 135 0 148 -2 158 -19 6 -13 10 -191 10 -509 0 -443 2 -491 17
-503 12 -10 49 -14 134 -14 100 0 121 3 136 18 17 16 18 55 23 520 l5 502 162
5 c111 3 166 9 175 18 18 18 18 223 -1 245 -12 15 -59 17 -495 16 -264 0 -491
-4 -503 -9z"/>
<path d="M15737 1328 c-16 -12 -17 -64 -17 -648 l-1 -635 22 -17 c19 -17 55
-18 413 -18 323 0 396 3 412 14 17 13 19 27 19 126 0 99 -2 113 -19 126 -16
11 -70 14 -272 14 l-251 0 -7 37 c-8 49 -8 118 0 177 l7 46 233 0 c288 0 274
-7 274 133 0 59 -5 99 -12 110 -12 15 -42 17 -253 19 l-240 3 -9 56 c-5 30 -6
85 -2 122 l7 66 259 3 c193 2 262 6 272 16 8 8 14 50 16 116 6 159 46 146
-436 146 -303 0 -402 -3 -415 -12z"/>
<path d="M16914 1330 c-18 -7 -22 -19 -27 -90 -3 -44 -1 -96 4 -115 17 -59 35
-65 206 -65 140 0 153 -2 163 -19 6 -13 10 -186 10 -493 0 -260 3 -483 6 -495
3 -12 19 -27 34 -33 39 -16 224 -10 242 8 10 10 14 123 18 520 l5 507 180 10
180 10 3 115 c1 63 -2 122 -8 130 -8 13 -76 15 -502 17 -271 1 -502 -2 -514
-7z"/>
<path d="M18310 1327 c-13 -7 -27 -23 -31 -37 -13 -46 -9 -1191 4 -1229 15
-45 45 -53 185 -49 l107 3 5 255 c3 140 9 261 13 268 6 9 65 12 237 12 194 0
231 -2 244 -16 14 -13 16 -50 16 -245 l0 -230 25 -24 c23 -23 31 -25 130 -25
162 0 145 -77 145 668 0 608 -1 629 -19 646 -17 15 -36 17 -135 14 -77 -2
-119 -7 -128 -16 -10 -10 -14 -73 -16 -253 l-3 -240 -25 -9 c-14 -6 -120 -10
-235 -10 -196 0 -210 1 -229 20 -19 19 -20 33 -20 249 0 195 -2 232 -16 245
-20 20 -215 23 -254 3z"/>
<path d="M19828 1329 c-17 -9 -18 -51 -18 -654 0 -627 1 -645 19 -655 27 -14
771 -14 820 1 l37 11 -1 123 0 122 -74 7 c-41 3 -170 6 -287 6 -250 0 -234 -9
-234 127 0 140 -15 133 262 133 216 0 233 1 264 21 34 20 43 42 24 54 -5 3
-10 26 -10 50 0 24 5 47 10 50 16 10 11 29 -15 58 l-26 27 -239 0 c-204 0
-241 2 -254 16 -21 20 -23 206 -3 222 7 6 126 13 294 17 247 7 283 10 287 24
13 46 17 110 11 166 -5 53 -10 64 -31 74 -33 15 -811 15 -836 0z"/>
</g>
</svg>
